HIERARCHY
ROOT Hips
{
	OFFSET -3.958830 18.904000 13.208200
	CHANNELS 6 Xposition Yposition Zposition Zrotation Yrotation Xrotation 
	JOINT LHipJoint
	{
		OFFSET 0.000000 0.000000 0.000000
		CHANNELS 3 Zrotation Yrotation Xrotation
		JOINT LeftUpLeg
		{
			OFFSET 1.800000 -1.400000 0.085000
			CHANNELS 3 Zrotation Yrotation Xrotation
			JOINT LeftLeg
			{
				OFFSET 2.215000 -6.000000 0.000000
				CHANNELS 3 Zrotation Yrotation Xrotation
				JOINT LeftFoot
				{
					OFFSET 2.500000 -6.900000 0.000000
					CHANNELS 3 Zrotation Yrotation Xrotation
					JOINT LeftToeBase
					{
						OFFSET 0.200000 -0.500000 1.950000
						CHANNELS 3 Zrotation Yrotation Xrotation
						End Site
						{
							OFFSET 0.000000 0.000000 0.000000
						}
					}
				}
			}
		}
	}
	JOINT RHipJoint
	{
		OFFSET 0.000000 0.000000 0.000000
		CHANNELS 3 Zrotation Yrotation Xrotation
		JOINT RightUpLeg
		{
			OFFSET -1.800000 -1.400000 0.085000
			CHANNELS 3 Zrotation Yrotation Xrotation
			JOINT RightLeg
			{
				OFFSET -2.215000 -6.000000 0.000000
				CHANNELS 3 Zrotation Yrotation Xrotation
				JOINT RightFoot
				{
					OFFSET -2.500000 -6.900000 0.000000
					CHANNELS 3 Zrotation Yrotation Xrotation
					JOINT RightToeBase
					{
						OFFSET -0.200000 -0.500000 1.950000
						CHANNELS 3 Zrotation Yrotation Xrotation
						End Site
						{
							OFFSET 0.000000 0.000000 0.000000
						}
					}
				}
			}
		}
	}
	JOINT LowerBack
	{
		OFFSET 0.000000 0.000000 0.000000
		CHANNELS 3 Zrotation Yrotation Xrotation
		JOINT Spine
		{
			OFFSET -0.087000 1.940000 -0.288900
			CHANNELS 3 Zrotation Yrotation Xrotation
			JOINT Spine1
			{
				OFFSET 0.000000 1.950000 0.060000
				CHANNELS 3 Zrotation Yrotation Xrotation
				JOINT Neck
				{
					OFFSET 0.000000 0.000000 0.000000
					CHANNELS 3 Zrotation Yrotation Xrotation
					JOINT Neck1
					{
						OFFSET 0.000000 1.600000 0.340000
						CHANNELS 3 Zrotation Yrotation Xrotation
						JOINT Head
						{
							OFFSET 0.000000 1.667000 -0.240000
							CHANNELS 3 Zrotation Yrotation Xrotation
							End Site
							{
								OFFSET 0.000000 0.000000 0.000000
							}
						}
					}
				}
				JOINT LeftShoulder
				{
					OFFSET 0.000000 0.000000 0.000000
					CHANNELS 3 Zrotation Yrotation Xrotation
					JOINT LeftArm
					{
						OFFSET 2.700000 1.550000 -0.730000
						CHANNELS 3 Zrotation Yrotation Xrotation
						JOINT LeftForeArm
						{
							OFFSET 5.450000 0.000000 0.000000
							CHANNELS 3 Zrotation Yrotation Xrotation
							JOINT LeftHand
							{
								OFFSET 3.450000 0.000000 0.000000
								CHANNELS 3 Zrotation Yrotation Xrotation
								JOINT LeftHandIndex1
								{
									OFFSET 0.750000 0.000000 0.000000
									CHANNELS 3 Zrotation Yrotation Xrotation
									End Site
									{
										OFFSET 0.000000 0.000000 0.000000
									}
								}
							}
						}
					}
				}
				JOINT RightShoulder
				{
					OFFSET 0.000000 0.000000 0.000000
					CHANNELS 3 Zrotation Yrotation Xrotation
					JOINT RightArm
					{
						OFFSET -2.700000 1.550000 -0.730000
						CHANNELS 3 Zrotation Yrotation Xrotation
						JOINT RightForeArm
						{
							OFFSET -5.450000 0.000000 0.000000
							CHANNELS 3 Zrotation Yrotation Xrotation
							JOINT RightHand
							{
								OFFSET -3.450000 0.000000 0.000000
								CHANNELS 3 Zrotation Yrotation Xrotation
								JOINT RightHandIndex1
								{
									OFFSET -0.750000 0.000000 0.000000
									CHANNELS 3 Zrotation Yrotation Xrotation
									End Site
									{
										OFFSET 0.000000 0.000000 0.000000
									}
								}
							}
						}
					}
				}
			}
		}
	}
}
MOTION
Frames: 6
Frame Time: 0.016667
-0.511480 16.470290 -2.807960 -4.473583 10.009147 8.612707 -15.365884 11.168237 5.047917 16.393855 -5.278935 -44.089225 -8.224368 12.762016 39.664646 -0.083692 8.267852 1.643095 0.721200 0.295560 0.421810 18.424862 -9.939114 2.778358 -12.802112 5.733207 -34.353537 2.762157 -7.357184 37.843899 -0.410243 -5.309456 2.579893 0.253300 0.219140 0.215160 -3.626536 -0.364994 -8.406608 5.650573 2.424023 17.259133 -2.337535 4.164606 -1.126103 0.341548 -1.456027 -7.588255 -1.443791 -6.244960 19.915471 3.829610 -7.257880 -14.430500 -23.001531 -3.751182 2.162199 -38.682395 6.299928 -8.605012 -53.842557 -37.128810 13.407983 -3.555111 3.490243 0.513070 0.091330 -0.129160 0.336680 21.826378 7.863942 4.406093 48.562565 -1.921561 -11.470960 32.765787 33.027511 4.520433 1.917647 -1.800612 -0.147110 0.181980 -0.187760 -0.229380 
-0.531050 16.443190 -2.804080 -4.642067 10.116258 8.145982 -15.378852 11.128805 5.085275 17.050240 -5.037912 -44.231113 -8.368712 13.182473 40.396721 -0.053302 8.482911 1.567152 0.720810 0.286460 0.438530 18.420855 -9.883110 2.811433 -13.112510 5.940212 -34.312701 3.575617 -7.904331 38.829197 -0.458931 -5.529953 2.508888 0.243630 0.205760 0.203160 -3.601159 -0.365888 -8.484045 5.616276 2.540756 18.104865 -2.308777 4.397024 -1.615798 0.431035 -1.425232 -7.541907 -1.463798 -6.366541 20.328231 4.112330 -7.307260 -15.056110 -23.116149 -3.270426 1.999739 -38.912856 6.624621 -8.752935 -53.597399 -37.901961 13.745759 -3.539131 3.462783 0.538960 0.073250 -0.118530 0.327630 21.721412 7.565452 4.370612 47.575945 -2.158365 -11.274855 34.475542 32.801605 4.935393 1.924050 -1.787336 -0.155450 0.193340 -0.188650 -0.241740 
-0.567190 16.391710 -2.798090 -4.828458 10.328967 7.569849 -15.402650 11.013545 5.157407 17.965837 -4.726999 -44.764599 -8.477622 13.920267 41.957100 0.038449 8.859217 1.410244 0.740560 0.299150 0.448270 18.425571 -9.738819 2.900650 -13.840135 6.349321 -34.635517 5.171068 -9.046577 40.798276 -0.568178 -6.025610 2.318483 0.230830 0.160450 0.228400 -3.567174 -0.362728 -8.622997 5.501565 2.728966 19.194397 -2.233484 4.718554 -2.406229 0.493609 -1.475958 -7.515355 -1.609487 -6.410912 20.788767 4.714260 -7.435010 -15.574460 -23.420099 -2.639713 1.851764 -39.298766 7.279467 -9.094621 -52.928004 -39.417575 14.298473 -3.499058 3.518415 0.551650 0.041300 -0.090380 0.321030 21.848624 7.296994 4.345779 46.298076 -2.540485 -11.045674 35.656860 32.395859 5.217701 1.942484 -1.814294 -0.117500 0.140000 -0.196920 -0.241250 
-0.605410 16.337750 -2.790040 -5.003818 10.848019 6.694026 -15.426529 10.914332 5.217826 18.479810 -4.578846 -45.525807 -7.629412 14.416077 44.361671 0.138796 9.247686 1.277765 0.719610 0.283320 0.442050 18.428627 -9.604717 2.992512 -14.521147 6.718360 -34.934862 6.471223 -10.342285 43.409106 -0.692807 -6.632261 2.117609 0.207110 0.140360 0.214760 -3.532843 -0.369043 -8.773919 5.501870 2.757704 20.512333 -2.274874 4.936014 -3.321026 0.671312 -1.398108 -7.531018 -1.609623 -6.470988 21.563919 4.956060 -7.422600 -15.629730 -23.906861 -1.982283 1.804749 -40.109315 8.467365 -9.805426 -51.997617 -41.818694 15.123430 -3.467079 3.513259 0.560940 0.021010 -0.077560 0.309530 21.901270 6.948061 4.292012 44.994115 -2.943157 -10.811721 36.950045 31.801250 5.463562 1.967725 -1.804806 -0.114240 0.130780 -0.197710 -0.241510 
-0.640830 16.289270 -2.768490 -5.050492 11.636038 5.585643 -15.436415 10.891728 5.223299 18.512132 -4.606887 -45.910480 -6.172202 14.516819 46.880796 0.229018 9.559115 1.188570 0.687190 0.235900 0.430150 18.423814 -9.548545 3.047960 -15.397200 6.795479 -34.593484 8.011499 -11.775872 45.330930 -0.806510 -7.195497 1.950980 0.165020 0.137520 0.206990 -3.514956 -0.384418 -8.888914 5.590947 2.666084 21.608091 -2.398422 5.023981 -4.160873 0.794007 -1.384607 -7.551724 -1.813337 -6.569595 22.759860 5.137710 -7.658610 -15.177150 -24.227272 -1.267305 1.777210 -41.307907 9.589289 -10.547232 -50.490685 -43.806999 15.483366 -3.444979 3.493866 0.575700 0.012260 -0.076920 0.303270 21.892757 6.501568 4.253944 44.403351 -3.446970 -10.819157 37.179764 31.529244 5.556620 1.982110 -1.781167 -0.118850 0.124500 -0.192120 -0.245580 
-0.665480 16.236000 -2.734160 -5.159455 12.375858 4.350175 -15.432212 10.890457 5.205990 18.435301 -4.630249 -46.107615 -4.539300 14.511214 49.539860 0.331196 9.882036 1.109518 0.637730 0.187070 0.391450 18.428543 -9.530551 3.071278 -16.089378 6.778614 -33.939627 9.248992 -13.104677 47.045267 -0.910783 -7.708143 1.814458 0.125320 0.161360 0.189010 -3.533799 -0.388109 -8.975211 6.064271 2.538933 22.095656 -2.511754 5.091131 -4.541487 0.815252 -1.577614 -7.434658 -2.408917 -6.586856 24.140280 5.392360 -8.116780 -14.476190 -24.461190 -0.431260 1.681003 -43.098078 10.362887 -11.404807 -47.900680 -45.349247 15.113549 -3.438815 3.442586 0.575850 0.016250 -0.086030 0.303800 22.017790 5.910538 4.105156 44.370021 -3.892350 -10.971395 35.948928 31.303634 5.343157 1.992747 -1.730695 -0.130930 0.144560 -0.176820 -0.234320 
